<svg xmlns="http://www.w3.org/2000/svg" >
  <defs>
    <symbol id="brand" viewBox="0 0 512 512">
    <path fill="#fc8f32" d="M201.56 19.495l-87.79 9.131-73.745 94.814v52.676l56.186 61.805 64.615-13.344 49.164 9.832-10.535 37.926 33.711 61.103-16.855 42.842 39.79 116.225 53.62-8.768 49.164-55.484 4.213-38.629 31.605-23.879-6.322-69.531 83.594-106.994-51.989 7.263-79.363-138.359-125.016-8.428-14.046-30.2zm252.346 319.8l-14.402 20.86-13.408.496c-11.849 24.321-12.598 38.019-13.907 66.547l17.383 4.471 21.852-52.147 2.482-40.226z"/>
      <path  fill="currentColor" d="M0 69.5866C0 69.5866 14.3139 62.6137 28.6678 62.6137L39.4901 29.1204C39.8953 27.5007 41.0783 26.3999 42.4139 26.3999C43.7495 26.3999 44.9325 27.5007 45.3377 29.1204L56.1601 62.6137C73.1601 62.6137 84.8278 69.5866 84.8278 69.5866C84.8278 69.5866 60.5145 3.35233 60.467 3.21944C59.7692 1.2612 58.5911 0 57.0029 0H27.8274C26.2392 0 25.1087 1.2612 24.3634 3.21944C24.3108 3.34983 0 69.5866 0 69.5866Z"/>
    </symbol>
  </defs>
</svg>


