<svg xmlns="http://www.w3.org/2000/svg">
  <defs>
    <!-- typescript icon -->
    <symbol id="typescript" fill="none" viewBox="0 0 512 512">
      <rect fill="#3178c6" height="512" rx="50" width="512"/>
      <rect fill="#3178c6" height="512" rx="50" width="512"/>
      <path clip-rule="evenodd" fill="#fff" fill-rule="evenodd" d="m316.939 407.424v50.061c8.138 4.172 17.763 7.3 28.875 9.386s22.823 3.129 35.135 3.129c11.999 0 23.397-1.147 34.196-3.442 10.799-2.294 20.268-6.075 28.406-11.342 8.138-5.266 14.581-12.15 19.328-20.65s7.121-19.007 7.121-31.522c0-9.074-1.356-17.026-4.069-23.857s-6.625-12.906-11.738-18.225c-5.112-5.319-11.242-10.091-18.389-14.315s-15.207-8.213-24.18-11.967c-6.573-2.712-12.468-5.345-17.685-7.9-5.217-2.556-9.651-5.163-13.303-7.822-3.652-2.66-6.469-5.476-8.451-8.448-1.982-2.973-2.974-6.336-2.974-10.091 0-3.441.887-6.544 2.661-9.308s4.278-5.136 7.512-7.118c3.235-1.981 7.199-3.52 11.894-4.615 4.696-1.095 9.912-1.642 15.651-1.642 4.173 0 8.581.313 13.224.938 4.643.626 9.312 1.591 14.008 2.894 4.695 1.304 9.259 2.947 13.694 4.928 4.434 1.982 8.529 4.276 12.285 6.884v-46.776c-7.616-2.92-15.937-5.084-24.962-6.492s-19.381-2.112-31.066-2.112c-11.895 0-23.163 1.278-33.805 3.833s-20.006 6.544-28.093 11.967c-8.086 5.424-14.476 12.333-19.171 20.729-4.695 8.395-7.043 18.433-7.043 30.114 0 14.914 4.304 27.638 12.912 38.172 8.607 10.533 21.675 19.45 39.204 26.751 6.886 2.816 13.303 5.579 19.25 8.291s11.086 5.528 15.415 8.448c4.33 2.92 7.747 6.101 10.252 9.543 2.504 3.441 3.756 7.352 3.756 11.733 0 3.233-.783 6.231-2.348 8.995s-3.939 5.162-7.121 7.196-7.147 3.624-11.894 4.771c-4.748 1.148-10.303 1.721-16.668 1.721-10.851 0-21.597-1.903-32.24-5.71-10.642-3.806-20.502-9.516-29.579-17.13zm-84.159-123.342h64.22v-41.082h-179v41.082h63.906v182.918h50.874z"/>
    </symbol>

    <!-- Python Icon -->
    <symbol id="python" fill="none" viewBox="16 16 32 32"> 
      <path fill="url(#a)" d="M31.885 16c-8.124 0-7.617 3.523-7.617 3.523l.01 3.65h7.752v1.095H21.197S16 23.678 16 31.876c0 8.196 4.537 7.906 4.537 7.906h2.708v-3.804s-.146-4.537 4.465-4.537h7.688s4.32.07 4.32-4.175v-7.019S40.374 16 31.885 16zm-4.275 2.454a1.394 1.394 0 1 1 0 2.79 1.393 1.393 0 0 1-1.395-1.395c0-.771.624-1.395 1.395-1.395z"/><path fill="url(#b)" d="M32.115 47.833c8.124 0 7.617-3.523 7.617-3.523l-.01-3.65H31.97v-1.095h10.832S48 40.155 48 31.958c0-8.197-4.537-7.906-4.537-7.906h-2.708v3.803s.146 4.537-4.465 4.537h-7.688s-4.32-.07-4.32 4.175v7.019s-.656 4.247 7.833 4.247zm4.275-2.454a1.393 1.393 0 0 1-1.395-1.395 1.394 1.394 0 1 1 1.395 1.395z"/>
      <defs>
        <linearGradient id="a" x1="19.075" x2="34.898" y1="18.782" y2="34.658" gradientUnits="userSpaceOnUse">
          <stop stop-color="#387EB8"/>
          <stop offset="1" stop-color="#366994"/>
        </linearGradient>
        <linearGradient id="b" x1="28.809" x2="45.803" y1="28.882" y2="45.163" gradientUnits="userSpaceOnUse">
          <stop stop-color="#FFE052"/>
          <stop offset="1" stop-color="#FFC331"/>
        </linearGradient>
      </defs>
    </symbol>

    <!-- C++ Icon -->
    <symbol id="cpp" viewBox="0 0 256 288">
      <path fill="#649AD2" d="M255.987 84.59c-.002-4.837-1.037-9.112-3.13-12.781-2.054-3.608-5.133-6.632-9.261-9.023-34.08-19.651-68.195-39.242-102.264-58.913-9.185-5.303-18.09-5.11-27.208.27-13.565 8-81.48 46.91-101.719 58.632C4.071 67.6.015 74.984.013 84.58 0 124.101.013 163.62 0 203.141c0 4.73.993 8.923 2.993 12.537 2.056 3.717 5.177 6.824 9.401 9.269 20.24 11.722 88.164 50.63 101.726 58.631 9.121 5.382 18.027 5.575 27.215.27 34.07-19.672 68.186-39.262 102.272-58.913 4.224-2.444 7.345-5.553 9.401-9.267 1.997-3.614 2.992-7.806 2.992-12.539 0 0 0-79.018-.013-118.539"/>
      <path fill="#004482" d="m128.392 143.476-125.4 72.202c2.057 3.717 5.178 6.824 9.402 9.269 20.24 11.722 88.164 50.63 101.726 58.631 9.121 5.382 18.027 5.575 27.215.27 34.07-19.672 68.186-39.262 102.272-58.913 4.224-2.444 7.345-5.553 9.401-9.267l-124.616-72.192"/>
      <path fill="#1A4674" d="M91.25 164.863c7.297 12.738 21.014 21.33 36.75 21.33 15.833 0 29.628-8.7 36.888-21.576l-36.496-21.141-37.142 21.387"/>
      <path fill="#01589C" d="M255.987 84.59c-.002-4.837-1.037-9.112-3.13-12.781l-124.465 71.667 124.616 72.192c1.997-3.614 2.99-7.806 2.992-12.539 0 0 0-79.018-.013-118.539"/>
      <path fill="#FFF" d="M249.135 148.636h-9.738v9.74h-9.74v-9.74h-9.737V138.9h9.737v-9.738h9.74v9.738h9.738v9.737ZM128 58.847c31.135 0 58.358 16.74 73.17 41.709l.444.759-37.001 21.307c-7.333-12.609-20.978-21.094-36.613-21.094-23.38 0-42.333 18.953-42.333 42.332a42.13 42.13 0 0 0 5.583 21.003c7.297 12.738 21.014 21.33 36.75 21.33 15.659 0 29.325-8.51 36.647-21.153l.241-.423 36.947 21.406c-14.65 25.597-42.228 42.851-73.835 42.851-31.549 0-59.084-17.185-73.754-42.707-7.162-12.459-11.26-26.904-11.26-42.307 0-46.95 38.061-85.013 85.014-85.013Zm75.865 70.314v9.738h9.737v9.737h-9.737v9.74h-9.738v-9.74h-9.738V138.9h9.738v-9.738h9.738Z"/>
    </symbol>
  </defs>
</svg>