<?xml version="1.0" encoding="UTF-8" standalone="no"?>
<!-- Created with Inkscape (http://www.inkscape.org/) -->

<svg
   width="138.77391mm"
   height="145.50932mm"
   viewBox="0 0 138.77391 145.50932"
   version="1.1"
   id="svg5"
   xml:space="preserve"
   xmlns:inkscape="http://www.inkscape.org/namespaces/inkscape"
   xmlns:sodipodi="http://sodipodi.sourceforge.net/DTD/sodipodi-0.dtd"
   xmlns="http://www.w3.org/2000/svg"
   xmlns:svg="http://www.w3.org/2000/svg"><sodipodi:namedview
     id="namedview7"
     pagecolor="#ffffff"
     bordercolor="#000000"
     borderopacity="0.25"
     inkscape:showpageshadow="2"
     inkscape:pageopacity="0.0"
     inkscape:pagecheckerboard="0"
     inkscape:deskcolor="#d1d1d1"
     inkscape:document-units="mm"
     showgrid="false" /><defs
     id="defs2" /><g
     inkscape:label="Layer 1"
     inkscape:groupmode="layer"
     id="layer1"
     transform="translate(-26.293017,-71.178404)"><g
       style="fill:#d4af37;fill-opacity:1;stroke:#d4af37;stroke-width:0.999985;stroke-dasharray:none;stroke-opacity:1"
       id="g3619"
       transform="matrix(0.27051731,0,0,0.28364665,26.427695,71.319382)"
       inkscape:export-filename="OC.svg"
       inkscape:export-xdpi="96"
       inkscape:export-ydpi="96"><g
         id="g3582"
         style="fill:#d4af37;fill-opacity:1;stroke:#d4af37;stroke-width:0.999985;stroke-dasharray:none;stroke-opacity:1">
	<g
   id="g3580"
   style="fill:#d4af37;fill-opacity:1;stroke:#d4af37;stroke-width:0.999985;stroke-dasharray:none;stroke-opacity:1">
		<path
   d="m 500.232,11.766 c -15.688,-15.687 -41.218,-15.688 -56.909,0 L 340.459,114.63 C 298.743,93.158 246.173,99.84 211.263,134.752 L 135.7,210.314 c -34.91,34.91 -41.594,87.481 -20.122,129.196 L 11.767,443.323 c -15.69,15.69 -15.69,41.22 0,56.909 7.846,7.844 18.15,11.766 28.454,11.766 10.304,0 20.61,-3.922 28.454,-11.766 L 172.462,396.445 c 15.514,8.013 32.824,12.284 50.814,12.284 29.648,0 57.493,-11.518 78.407,-32.432 5.238,-5.238 5.238,-13.731 0,-18.969 l -37.939,-37.939 c -2.515,-2.515 -5.927,-3.929 -9.485,-3.929 -3.557,0 -6.97,1.414 -9.485,3.929 -1.607,1.606 -3.375,2.986 -5.25,4.176 4.79,-14.069 1.591,-30.282 -9.609,-41.482 -11.2,-11.199 -27.413,-14.398 -41.482,-9.608 1.188,-1.875 2.57,-3.644 4.176,-5.25 l 75.562,-75.562 c 1.388,-1.388 2.883,-2.602 4.451,-3.663 -5.006,14.169 -1.855,30.603 9.459,41.918 7.846,7.844 18.15,11.766 28.454,11.766 4.563,0 9.125,-0.773 13.474,-2.311 -1.073,1.58 -2.294,3.074 -3.673,4.453 -2.515,2.515 -3.929,5.927 -3.929,9.485 0,3.557 1.414,6.97 3.929,9.485 l 37.94,37.939 c 5.238,5.238 13.731,5.237 18.969,0 34.91,-34.91 41.594,-87.481 20.122,-129.196 L 500.231,68.674 c 15.691,-15.688 15.691,-41.217 0.001,-56.908 z m -247.085,334.963 19.333,19.333 c -14.212,10.288 -31.269,15.841 -49.202,15.841 -10.638,0 -20.967,-1.957 -30.576,-5.695 l 21.785,-21.785 c 2.883,0.444 5.819,0.677 8.793,0.677 10.712,10e-4 20.971,-2.915 29.867,-8.371 z m -61.17,-45.677 c 2.614,-2.614 6.049,-3.922 9.485,-3.922 3.435,0 6.87,1.308 9.485,3.922 5.23,5.23 5.23,13.739 0,18.969 L 49.706,481.262 c -5.229,5.23 -13.739,5.23 -18.969,0 -5.23,-5.23 -5.23,-13.739 0,-18.969 z m 57.225,-128.36 -75.562,75.562 c -10.796,10.796 -16.743,25.168 -16.743,40.468 0,2.974 0.233,5.909 0.677,8.792 l -21.757,21.757 c -11.711,-30.131 -5.435,-65.699 18.851,-89.987 l 75.563,-75.562 c 16.387,-16.387 37.912,-24.58 59.438,-24.58 10.378,0 20.752,1.913 30.552,5.726 l -21.775,21.777 c -17.422,-2.688 -35.852,2.655 -49.244,16.047 z m 117.803,98.834 -19.329,-19.327 c 5.455,-8.896 8.371,-19.154 8.371,-29.869 0,-2.974 -0.235,-5.91 -0.677,-8.793 l 21.746,-21.746 c 10.156,26.125 6.802,56.331 -10.111,79.735 z M 481.263,49.705 320.021,210.947 c -5.229,5.23 -13.739,5.23 -18.969,0 -5.23,-5.23 -5.23,-13.741 0,-18.971 L 462.292,30.737 c 5.231,-5.23 13.741,-5.231 18.971,0 5.23,5.23 5.23,13.739 0,18.968 z"
   id="path3578"
   style="fill:#d4af37;fill-opacity:1;stroke:#d4af37;stroke-width:0.999985;stroke-dasharray:none;stroke-opacity:1" />
	</g>
</g></g></g></svg>
